STARTFONT 2.1
FONT -FontForge-Saira SemiBold-Demi-R-Normal--28-200-100-100-P-146-ISO10646-1
SIZE 20 100 100
FONTBOUNDINGBOX 27 28 0 -6
COMMENT "Generated by fontforge, http://fontforge.sourceforge.net"
COMMENT "Copyright 2020 The Saira Project Authors (https://github.com/Omnibus-Type/Saira)"
STARTPROPERTIES 39
FOUNDRY "FontForge"
FAMILY_NAME "Saira SemiBold"
WEIGHT_NAME "Demi"
SLANT "R"
SETWIDTH_NAME "Normal"
ADD_STYLE_NAME ""
PIXEL_SIZE 28
POINT_SIZE 200
RESOLUTION_X 100
RESOLUTION_Y 100
SPACING "P"
AVERAGE_WIDTH 146
CHARSET_REGISTRY "ISO10646"
CHARSET_ENCODING "1"
FONTNAME_REGISTRY ""
CHARSET_COLLECTIONS "ISO10646-1"
FONT_NAME "Saira-SemiBold"
FACE_NAME "Saira SemiBold"
COPYRIGHT "Copyright 2020 The Saira Project Authors (https://github.com/Omnibus-Type/Saira)"
FONT_VERSION "1.101"
FONT_ASCENT 22
FONT_DESCENT 6
UNDERLINE_POSITION -5
UNDERLINE_THICKNESS 1
X_HEIGHT 13
CAP_HEIGHT 18
RAW_ASCENT 800
RAW_DESCENT 200
NORM_SPACE 7
RELATIVE_WEIGHT 60
RELATIVE_SETWIDTH 50
SUPERSCRIPT_X 0
SUPERSCRIPT_Y 9
SUPERSCRIPT_SIZE 16
SUBSCRIPT_X 0
SUBSCRIPT_Y 2
SUBSCRIPT_SIZE 16
AVG_LOWERCASE_WIDTH 148
AVG_UPPERCASE_WIDTH 182
ENDPROPERTIES
CHARS 128
STARTCHAR CR
ENCODING 13
SWIDTH 247 0
DWIDTH 7 0
BBX 1 1 0 0
BITMAP
00
ENDCHAR
STARTCHAR space
ENCODING 32
SWIDTH 247 0
DWIDTH 7 0
BBX 1 1 0 0
BITMAP
00
ENDCHAR
STARTCHAR exclam
ENCODING 33
SWIDTH 303 0
DWIDTH 8 0
BBX 5 19 2 0
BITMAP
F8
F8
F8
F0
F0
F0
F0
70
70
70
70
70
70
00
00
F0
F0
F0
F0
ENDCHAR
STARTCHAR quotedbl
ENCODING 34
SWIDTH 431 0
DWIDTH 12 0
BBX 8 7 2 12
BITMAP
E7
E7
E7
E7
E7
E7
E7
ENDCHAR
STARTCHAR numbersign
ENCODING 35
SWIDTH 748 0
DWIDTH 21 0
BBX 16 19 2 0
BITMAP
070E
070C
061C
061C
0E18
7FFF
7FFF
0C38
1C38
1C30
1C70
FFFE
FFFE
FFFE
3860
30E0
30E0
70C0
70C0
ENDCHAR
STARTCHAR dollar
ENCODING 36
SWIDTH 538 0
DWIDTH 15 0
BBX 11 19 2 0
BITMAP
0E00
0E00
7FE0
FFE0
FFE0
EE00
EE00
FE00
FFC0
FFE0
3FE0
0EE0
0EE0
0EE0
FFE0
FFE0
FF80
0E00
0E00
ENDCHAR
STARTCHAR percent
ENCODING 37
SWIDTH 860 0
DWIDTH 24 0
BBX 22 19 1 0
BITMAP
7F00E0
770180
638380
E38300
E38600
E38E00
E38C00
639800
7F38C0
7F33F8
007318
00E71C
00C71C
01C71C
03871C
03071C
07071C
0E03F8
0C03F8
ENDCHAR
STARTCHAR ampersand
ENCODING 38
SWIDTH 737 0
DWIDTH 21 0
BBX 18 19 2 0
BITMAP
3FFE00
7FFE00
FFFE00
F00000
F00000
F00000
F00000
F80000
7F9FC0
3F9FC0
7F9FC0
F01E00
E01E00
E01E00
E01E00
F01E00
FFFE00
7FFE00
1FFE00
ENDCHAR
STARTCHAR quotesingle
ENCODING 39
SWIDTH 252 0
DWIDTH 7 0
BBX 3 7 2 12
BITMAP
E0
E0
E0
E0
E0
E0
E0
ENDCHAR
STARTCHAR parenleft
ENCODING 40
SWIDTH 339 0
DWIDTH 9 0
BBX 7 25 2 -4
BITMAP
0E
1C
38
38
70
70
F0
F0
F0
F0
E0
E0
E0
E0
E0
F0
F0
F0
F0
70
70
38
38
1C
0E
ENDCHAR
STARTCHAR parenright
ENCODING 41
SWIDTH 339 0
DWIDTH 9 0
BBX 7 25 1 -4
BITMAP
C0
60
70
38
38
3C
1C
1C
1C
1C
1C
1E
1E
1E
1C
1C
1C
1C
1C
1C
38
38
70
70
E0
ENDCHAR
STARTCHAR asterisk
ENCODING 42
SWIDTH 447 0
DWIDTH 13 0
BBX 10 10 1 9
BITMAP
0C00
4C40
6CC0
FFC0
1F00
3F00
FFC0
6CC0
0C00
0C00
ENDCHAR
STARTCHAR plus
ENCODING 43
SWIDTH 540 0
DWIDTH 15 0
BBX 11 12 2 1
BITMAP
0E00
0E00
0E00
0E00
0E00
FFE0
FFE0
0E00
0E00
0E00
0E00
0E00
ENDCHAR
STARTCHAR comma
ENCODING 44
SWIDTH 273 0
DWIDTH 8 0
BBX 5 8 1 -4
BITMAP
78
78
78
78
38
38
F0
E0
ENDCHAR
STARTCHAR hyphen
ENCODING 45
SWIDTH 369 0
DWIDTH 10 0
BBX 8 4 1 6
BITMAP
FF
FF
FF
FF
ENDCHAR
STARTCHAR period
ENCODING 46
SWIDTH 273 0
DWIDTH 8 0
BBX 4 4 2 0
BITMAP
F0
F0
F0
F0
ENDCHAR
STARTCHAR slash
ENCODING 47
SWIDTH 392 0
DWIDTH 11 0
BBX 11 23 0 -2
BITMAP
00E0
01E0
01C0
01C0
03C0
0380
0380
0700
0700
0F00
0E00
0E00
1E00
1C00
1C00
3C00
3800
3800
7000
7000
7000
E000
E000
ENDCHAR
STARTCHAR zero
ENCODING 48
SWIDTH 666 0
DWIDTH 19 0
BBX 15 19 2 0
BITMAP
3FF8
7FFC
FFFC
F03E
F01E
F01E
F01E
F01E
F01E
F01E
F01E
F01E
F01E
F01E
F01E
F83E
FFFC
7FFC
3FF0
ENDCHAR
STARTCHAR one
ENCODING 49
SWIDTH 389 0
DWIDTH 11 0
BBX 7 19 1 0
BITMAP
1E
7E
FE
FE
DE
9E
1E
1E
1E
1E
1E
1E
1E
1E
1E
1E
1E
1E
1E
ENDCHAR
STARTCHAR two
ENCODING 50
SWIDTH 611 0
DWIDTH 17 0
BBX 13 19 2 0
BITMAP
FFF0
FFF8
FFF8
0078
0078
0078
0078
00F8
07F8
1FF0
7FC0
FE00
F800
F000
F000
E000
FFF8
FFF8
FFF8
ENDCHAR
STARTCHAR three
ENCODING 51
SWIDTH 607 0
DWIDTH 17 0
BBX 13 19 2 0
BITMAP
FFE0
FFF0
FFF8
0078
0078
0078
0078
01F0
1FE0
1FE0
1FF0
0078
0078
0078
0078
00F8
FFF8
FFF0
FFE0
ENDCHAR
STARTCHAR four
ENCODING 52
SWIDTH 647 0
DWIDTH 18 0
BBX 16 19 1 0
BITMAP
01E0
03C0
03C0
0780
0F80
0F00
1E1C
1E3C
3C3C
3C3C
783C
F03C
FFFF
FFFF
FFFF
003C
003C
003C
003C
ENDCHAR
STARTCHAR five
ENCODING 53
SWIDTH 623 0
DWIDTH 17 0
BBX 14 19 2 0
BITMAP
FFF0
FFF0
FFF0
F000
F000
F000
F000
FFE0
FFF8
FFF8
C0FC
003C
003C
003C
003C
007C
FFF8
FFF8
FFE0
ENDCHAR
STARTCHAR six
ENCODING 54
SWIDTH 664 0
DWIDTH 19 0
BBX 15 19 2 0
BITMAP
3FFC
7FFC
7FFC
F800
F000
F000
F000
F7F0
FFFC
FFFC
F83E
F01E
F01E
F01E
F01E
F83E
7FFC
7FFC
3FF0
ENDCHAR
STARTCHAR seven
ENCODING 55
SWIDTH 569 0
DWIDTH 16 0
BBX 14 19 1 0
BITMAP
FFFC
FFFC
FFFC
0078
0078
00F8
00F0
01F0
01E0
01E0
03C0
03C0
0780
0780
0F80
0F00
1F00
1E00
3E00
ENDCHAR
STARTCHAR eight
ENCODING 56
SWIDTH 682 0
DWIDTH 19 0
BBX 15 19 2 0
BITMAP
3FF8
7FFC
FFFE
F01E
F01E
F01E
F01E
783E
3FFC
3FF8
7FFC
F01E
F01E
F01E
F01E
F01E
FFFE
7FFC
3FF8
ENDCHAR
STARTCHAR nine
ENCODING 57
SWIDTH 664 0
DWIDTH 19 0
BBX 15 19 2 0
BITMAP
3FF8
7FFC
FFFC
F03C
F01E
E01E
F01E
F01E
FFFE
FFFE
7FDE
0F1E
001E
001E
003C
007C
7FFC
7FF8
7FF0
ENDCHAR
STARTCHAR colon
ENCODING 58
SWIDTH 273 0
DWIDTH 8 0
BBX 4 14 2 0
BITMAP
F0
F0
F0
00
00
00
00
00
00
00
F0
F0
F0
F0
ENDCHAR
STARTCHAR semicolon
ENCODING 59
SWIDTH 273 0
DWIDTH 8 0
BBX 5 18 1 -4
BITMAP
78
78
78
00
00
00
00
00
00
00
78
78
78
78
38
38
F0
E0
ENDCHAR
STARTCHAR less
ENCODING 60
SWIDTH 541 0
DWIDTH 15 0
BBX 11 12 2 1
BITMAP
0020
00E0
07E0
3FC0
FE00
F000
F800
FF00
1FC0
07E0
00E0
0020
ENDCHAR
STARTCHAR equal
ENCODING 61
SWIDTH 540 0
DWIDTH 15 0
BBX 11 8 2 3
BITMAP
FFE0
FFE0
FFE0
0000
0000
FFE0
FFE0
FFE0
ENDCHAR
STARTCHAR greater
ENCODING 62
SWIDTH 541 0
DWIDTH 15 0
BBX 11 12 2 1
BITMAP
8000
F000
FC00
7F80
0FE0
01E0
03E0
0FE0
7F00
FC00
E000
8000
ENDCHAR
STARTCHAR question
ENCODING 63
SWIDTH 511 0
DWIDTH 14 0
BBX 12 19 1 0
BITMAP
FFC0
FFE0
FFE0
01F0
00F0
00F0
01E0
07E0
1FC0
1F00
1E00
1C00
1C00
0000
0000
1E00
1E00
1E00
1E00
ENDCHAR
STARTCHAR at
ENCODING 64
SWIDTH 936 0
DWIDTH 26 0
BBX 22 22 2 -3
BITMAP
1FFFE0
380078
600018
40000C
C0100C
C3FF0C
C3FF0C
C0070C
C0078C
C0078C
C3FF8C
C3FF8C
C3878C
C3878C
C38F8C
C3FFFC
C1F7F8
C00000
600000
700000
3FFF80
0FFF80
ENDCHAR
STARTCHAR A
ENCODING 65
SWIDTH 686 0
DWIDTH 19 0
BBX 19 19 0 0
BITMAP
01F800
03F800
03F800
03BC00
07BC00
07BC00
071E00
0F1E00
0F1E00
0E0F00
1E0F00
1E0F00
1FFF80
3FFF80
3FFF80
3C03C0
7803C0
7803C0
F801E0
ENDCHAR
STARTCHAR B
ENCODING 66
SWIDTH 675 0
DWIDTH 19 0
BBX 15 19 2 0
BITMAP
FFF8
FFFC
FFFE
F01E
F01E
F01E
F01E
F03C
FFF8
FFF8
FFFC
F01E
F01E
F01E
F01E
F03E
FFFE
FFFC
FFF8
ENDCHAR
STARTCHAR C
ENCODING 67
SWIDTH 571 0
DWIDTH 16 0
BBX 13 19 2 0
BITMAP
3FF8
7FF8
7FF8
F800
F000
F000
F000
F000
F000
F000
F000
F000
F000
F000
F000
F800
7FF8
7FF8
1FF8
ENDCHAR
STARTCHAR D
ENCODING 68
SWIDTH 683 0
DWIDTH 19 0
BBX 15 19 2 0
BITMAP
FFF8
FFFC
FFFE
F03E
F01E
F01E
F01E
F01E
F01E
F01E
F01E
F01E
F01E
F01E
F01E
F03E
FFFE
FFFC
FFF0
ENDCHAR
STARTCHAR E
ENCODING 69
SWIDTH 607 0
DWIDTH 17 0
BBX 13 19 2 0
BITMAP
FFF8
FFF8
FFF8
F000
F000
F000
F000
F000
FFF0
FFF0
FFF0
F000
F000
F000
F000
F000
FFF8
FFF8
FFF8
ENDCHAR
STARTCHAR F
ENCODING 70
SWIDTH 569 0
DWIDTH 16 0
BBX 13 19 2 0
BITMAP
FFF8
FFF8
FFF8
F000
F000
F000
F000
F000
FFF0
FFF0
FFF0
F000
F000
F000
F000
F000
F000
F000
F000
ENDCHAR
STARTCHAR G
ENCODING 71
SWIDTH 669 0
DWIDTH 19 0
BBX 15 19 2 0
BITMAP
1FFE
7FFE
7FFE
F800
F000
F000
F000
F000
F0FE
F0FE
F0FE
F01E
F01E
F01E
F01E
F81E
7FFE
3FFE
1FFE
ENDCHAR
STARTCHAR H
ENCODING 72
SWIDTH 722 0
DWIDTH 20 0
BBX 16 19 2 0
BITMAP
F00F
F00F
F00F
F00F
F00F
F00F
F00F
F00F
FFFF
FFFF
FFFF
F00F
F00F
F00F
F00F
F00F
F00F
F00F
F00F
ENDCHAR
STARTCHAR I
ENCODING 73
SWIDTH 306 0
DWIDTH 9 0
BBX 4 19 2 0
BITMAP
F0
F0
F0
F0
F0
F0
F0
F0
F0
F0
F0
F0
F0
F0
F0
F0
F0
F0
F0
ENDCHAR
STARTCHAR J
ENCODING 74
SWIDTH 389 0
DWIDTH 11 0
BBX 8 19 1 0
BITMAP
0F
0F
0F
0F
0F
0F
0F
0F
0F
0F
0F
0F
0F
0F
0F
1F
FE
FE
F8
ENDCHAR
STARTCHAR K
ENCODING 75
SWIDTH 678 0
DWIDTH 19 0
BBX 17 19 2 0
BITMAP
F00F80
F01E00
F03C00
F07C00
F07800
F0F000
F1E000
F3E000
FFC000
FFC000
FFE000
F1E000
F1F000
F0F800
F07800
F03C00
F03E00
F01F00
F00F80
ENDCHAR
STARTCHAR L
ENCODING 76
SWIDTH 538 0
DWIDTH 15 0
BBX 12 19 2 0
BITMAP
F000
F000
F000
F000
F000
F000
F000
F000
F000
F000
F000
F000
F000
F000
F000
F000
FFF0
FFF0
FFF0
ENDCHAR
STARTCHAR M
ENCODING 77
SWIDTH 899 0
DWIDTH 25 0
BBX 21 19 2 0
BITMAP
FC01F8
FC01F8
FE03F8
FE03F8
FF03F8
FF07F8
FF07F8
F78778
F78F78
F38E78
F3DE78
F3DE78
F1FC78
F1FC78
F1FC78
F0F878
F0F878
F07078
F07078
ENDCHAR
STARTCHAR N
ENCODING 78
SWIDTH 723 0
DWIDTH 20 0
BBX 16 19 2 0
BITMAP
F80F
FC0F
FC0F
FE0F
FE0F
FF0F
FF8F
F78F
F3CF
F3EF
F1EF
F1FF
F0FF
F07F
F07F
F03F
F01F
F01F
F00F
ENDCHAR
STARTCHAR O
ENCODING 79
SWIDTH 707 0
DWIDTH 20 0
BBX 16 19 2 0
BITMAP
3FFC
7FFE
FFFE
F01F
F00F
F00F
F00F
F00F
F00F
F00F
F00F
F00F
F00F
F00F
F00F
F81F
FFFE
7FFE
3FF8
ENDCHAR
STARTCHAR P
ENCODING 80
SWIDTH 647 0
DWIDTH 18 0
BBX 15 19 2 0
BITMAP
FFF8
FFFC
FFFC
F03E
F01E
F01E
F01E
F01E
F01E
FFFE
FFFC
FFF8
FFC0
F000
F000
F000
F000
F000
F000
ENDCHAR
STARTCHAR Q
ENCODING 81
SWIDTH 707 0
DWIDTH 20 0
BBX 17 22 2 -3
BITMAP
3FFC00
7FFE00
FFFE00
F01F00
F00F00
F00F00
F00F00
F00F00
F00F00
F00F00
F00F00
F00F00
F00F00
F3EF00
F1EF00
F8FF00
FFFE00
7FFE00
3FFC00
001E00
001F00
000F80
ENDCHAR
STARTCHAR R
ENCODING 82
SWIDTH 676 0
DWIDTH 19 0
BBX 16 19 2 0
BITMAP
FFF8
FFFC
FFFE
F01E
F01E
F01E
F01E
F01E
F03E
FFFE
FFFC
FFF8
F078
F078
F03C
F03C
F03E
F01E
F01F
ENDCHAR
STARTCHAR S
ENCODING 83
SWIDTH 620 0
DWIDTH 17 0
BBX 15 19 1 0
BITMAP
3FFC
7FFC
7FFC
7800
F800
F000
7800
7F80
7FF8
3FFC
0FFE
003E
001E
001E
001E
003E
7FFC
7FFC
7FF8
ENDCHAR
STARTCHAR T
ENCODING 84
SWIDTH 582 0
DWIDTH 16 0
BBX 15 19 1 0
BITMAP
FFFE
FFFE
FFFE
0780
0780
0780
0780
0780
0780
0780
0780
0780
0780
0780
0780
0780
0780
0780
0780
ENDCHAR
STARTCHAR U
ENCODING 85
SWIDTH 698 0
DWIDTH 20 0
BBX 15 19 2 0
BITMAP
F01E
F01E
F01E
F01E
F01E
F01E
F01E
F01E
F01E
F01E
F01E
F01E
F01E
F01E
F01E
781E
7FFE
7FFC
1FF8
ENDCHAR
STARTCHAR V
ENCODING 86
SWIDTH 663 0
DWIDTH 19 0
BBX 18 19 0 0
BITMAP
F803C0
7807C0
780780
3C0780
3C0780
3C0F00
1E0F00
1E0F00
1E1E00
0F1E00
0F1E00
0F3C00
07BC00
07BC00
07F800
03F800
03F800
03F000
03F000
ENDCHAR
STARTCHAR W
ENCODING 87
SWIDTH 989 0
DWIDTH 28 0
BBX 26 19 1 0
BITMAP
F01E03C0
F03E03C0
F03F0780
703F0780
783F0780
787F8780
787F8700
38778F00
3C738F00
3CF3CF00
3CE3CE00
3CE3CE00
1EE1DE00
1FE1FE00
1FC1FE00
1FC0FC00
0FC0FC00
0FC0FC00
0F80FC00
ENDCHAR
STARTCHAR X
ENCODING 88
SWIDTH 679 0
DWIDTH 19 0
BBX 19 19 0 0
BITMAP
7C07C0
3C0780
3E0F80
1F1F00
0F1E00
0FBE00
07FC00
03F800
03F000
01F000
03F800
03F800
07BC00
0FBE00
0F1E00
1E0F00
3E0F80
3C07C0
F803E0
ENDCHAR
STARTCHAR Y
ENCODING 89
SWIDTH 624 0
DWIDTH 17 0
BBX 17 19 0 0
BITMAP
F80780
780F00
3C0F00
3C1E00
1E1E00
1E3C00
0F3C00
0F7800
07F800
07F000
03F000
03E000
01E000
01E000
01E000
01E000
01E000
01E000
01E000
ENDCHAR
STARTCHAR Z
ENCODING 90
SWIDTH 611 0
DWIDTH 17 0
BBX 15 19 1 0
BITMAP
7FFE
7FFE
7FFE
007C
0078
00F8
01F0
03E0
03E0
07C0
0F80
0F00
1F00
3E00
7C00
7800
FFFE
FFFE
FFFE
ENDCHAR
STARTCHAR bracketleft
ENCODING 91
SWIDTH 366 0
DWIDTH 10 0
BBX 7 25 2 -4
BITMAP
FE
FE
FE
F0
F0
F0
F0
F0
F0
F0
F0
F0
F0
F0
F0
F0
F0
F0
F0
F0
F0
F0
F0
FE
FE
ENDCHAR
STARTCHAR backslash
ENCODING 92
SWIDTH 392 0
DWIDTH 11 0
BBX 11 23 0 -2
BITMAP
E000
F000
7000
7000
7800
3800
3800
3C00
1C00
1C00
0E00
0E00
0E00
0700
0700
0780
0380
0380
03C0
01C0
01C0
00E0
00E0
ENDCHAR
STARTCHAR bracketright
ENCODING 93
SWIDTH 366 0
DWIDTH 10 0
BBX 7 25 1 -4
BITMAP
FE
FE
FE
0E
0E
0E
0E
0E
0E
0E
0E
0E
0E
0E
0E
0E
0E
0E
0E
0E
0E
0E
0E
FE
FE
ENDCHAR
STARTCHAR asciicircum
ENCODING 94
SWIDTH 442 0
DWIDTH 12 0
BBX 11 9 1 12
BITMAP
0E00
1E00
1F00
3B00
3380
7380
61C0
E1C0
E0E0
ENDCHAR
STARTCHAR underscore
ENCODING 95
SWIDTH 378 0
DWIDTH 11 0
BBX 11 3 0 -5
BITMAP
FFE0
FFE0
FFE0
ENDCHAR
STARTCHAR grave
ENCODING 96
SWIDTH 228 0
DWIDTH 6 0
BBX 6 4 0 16
BITMAP
F0
38
1C
0C
ENDCHAR
STARTCHAR a
ENCODING 97
SWIDTH 565 0
DWIDTH 16 0
BBX 13 15 1 0
BITMAP
0200
7FE0
7FF0
7FF8
0078
0078
0078
7FF8
7FF8
F078
F078
F078
FFF8
7FF8
3F78
ENDCHAR
STARTCHAR b
ENCODING 98
SWIDTH 585 0
DWIDTH 16 0
BBX 13 21 2 0
BITMAP
F000
F000
F000
F000
F000
F000
F080
F7E0
FFF0
FFF0
F078
F078
F078
F078
F078
F078
F078
F078
FFF0
FFF0
F7E0
ENDCHAR
STARTCHAR c
ENCODING 99
SWIDTH 462 0
DWIDTH 13 0
BBX 11 15 1 0
BITMAP
0200
3FE0
7FE0
7FE0
7800
7000
F000
F000
F000
F000
7000
7800
7FE0
7FE0
1FE0
ENDCHAR
STARTCHAR d
ENCODING 100
SWIDTH 585 0
DWIDTH 16 0
BBX 13 21 1 0
BITMAP
0038
0038
0038
0038
0038
0038
0438
3FB8
7FF8
7FF8
7878
7038
F038
F038
F038
7038
7078
7878
7FF8
7FB8
3FB8
ENDCHAR
STARTCHAR e
ENCODING 101
SWIDTH 557 0
DWIDTH 16 0
BBX 13 15 1 0
BITMAP
0100
3FF0
7FF0
7CF8
7078
7038
F038
FFF8
FFF8
7000
7000
7800
7FF8
7FF8
1FF8
ENDCHAR
STARTCHAR f
ENCODING 102
SWIDTH 404 0
DWIDTH 11 0
BBX 10 21 1 0
BITMAP
07C0
1FC0
1FC0
3C00
3C00
3C00
3C00
FFC0
FFC0
FFC0
3C00
3C00
3C00
3C00
3C00
3C00
3C00
3C00
3C00
3C00
3C00
ENDCHAR
STARTCHAR g
ENCODING 103
SWIDTH 585 0
DWIDTH 16 0
BBX 13 21 1 -6
BITMAP
0400
3FB8
7FF8
7FF8
7878
7038
F038
F038
F038
7038
7078
7878
7FF8
3FB8
1F38
0038
0078
00F8
3FF8
3FF0
3F80
ENDCHAR
STARTCHAR h
ENCODING 104
SWIDTH 593 0
DWIDTH 17 0
BBX 13 21 2 0
BITMAP
F000
F000
F000
F000
F000
F000
F000
F7E0
FFF0
FFF0
F078
F078
F078
F078
F078
F078
F078
F078
F078
F078
F078
ENDCHAR
STARTCHAR i
ENCODING 105
SWIDTH 275 0
DWIDTH 8 0
BBX 4 21 2 0
BITMAP
F0
F0
F0
F0
00
00
00
F0
F0
F0
F0
F0
F0
F0
F0
F0
F0
F0
F0
F0
F0
ENDCHAR
STARTCHAR j
ENCODING 106
SWIDTH 275 0
DWIDTH 8 0
BBX 6 27 0 -6
BITMAP
3C
3C
3C
3C
00
00
00
3C
3C
3C
3C
3C
3C
3C
3C
3C
3C
3C
3C
3C
3C
3C
3C
7C
F8
F8
C0
ENDCHAR
STARTCHAR k
ENCODING 107
SWIDTH 558 0
DWIDTH 16 0
BBX 13 21 2 0
BITMAP
F000
F000
F000
F000
F000
F000
F000
F0F8
F0F0
F1E0
F3C0
F780
FF80
FF00
FF80
F780
F3C0
F3E0
F1E0
F0F0
F078
ENDCHAR
STARTCHAR l
ENCODING 108
SWIDTH 275 0
DWIDTH 8 0
BBX 4 21 2 0
BITMAP
F0
F0
F0
F0
F0
F0
F0
F0
F0
F0
F0
F0
F0
F0
F0
F0
F0
F0
F0
F0
F0
ENDCHAR
STARTCHAR m
ENCODING 109
SWIDTH 872 0
DWIDTH 24 0
BBX 20 15 2 0
BITMAP
010080
F7E7E0
FFFFF0
FFFFF0
F0F8F0
F0F070
F0F070
F0F070
F0F070
F0F070
F0F070
F0F070
F0F070
F0F070
F0F070
ENDCHAR
STARTCHAR n
ENCODING 110
SWIDTH 593 0
DWIDTH 17 0
BBX 13 15 2 0
BITMAP
0080
F7E0
FFF0
FFF0
F078
F078
F078
F078
F078
F078
F078
F078
F078
F078
F078
ENDCHAR
STARTCHAR o
ENCODING 111
SWIDTH 574 0
DWIDTH 16 0
BBX 14 15 1 0
BITMAP
0100
3FF0
7FF8
7FF8
7038
703C
F03C
F03C
F03C
703C
703C
7838
7FF8
7FF8
3FF0
ENDCHAR
STARTCHAR p
ENCODING 112
SWIDTH 585 0
DWIDTH 16 0
BBX 13 21 2 -6
BITMAP
0100
F7E0
FFF0
FFF0
F078
F078
F078
F078
F078
F078
F078
F878
FFF0
FFF0
F7E0
F000
F000
F000
F000
F000
F000
ENDCHAR
STARTCHAR q
ENCODING 113
SWIDTH 586 0
DWIDTH 16 0
BBX 13 21 1 -6
BITMAP
0400
3FB8
7FF8
7FF8
7878
7038
F038
F038
F038
7038
7078
7878
7FF8
7FB8
3F38
0038
0038
0038
0038
0038
0038
ENDCHAR
STARTCHAR r
ENCODING 114
SWIDTH 395 0
DWIDTH 11 0
BBX 8 15 2 0
BITMAP
01
F7
FF
FF
FC
F0
F0
F0
F0
F0
F0
F0
F0
F0
F0
ENDCHAR
STARTCHAR s
ENCODING 115
SWIDTH 499 0
DWIDTH 14 0
BBX 12 15 1 0
BITMAP
0200
7FE0
7FE0
FDE0
F000
F000
FF00
7FE0
3FE0
01F0
00F0
00F0
7FF0
7FE0
7FC0
ENDCHAR
STARTCHAR t
ENCODING 116
SWIDTH 390 0
DWIDTH 11 0
BBX 9 18 1 0
BITMAP
3C00
3C00
3C00
3C00
FF80
FF80
FF80
3C00
3C00
3C00
3C00
3C00
3C00
3C00
3C00
3C00
3C00
3C00
ENDCHAR
STARTCHAR u
ENCODING 117
SWIDTH 593 0
DWIDTH 17 0
BBX 13 14 2 0
BITMAP
F078
F078
F078
F078
F078
F078
F078
F078
F078
F078
F0F8
FFF8
7FF8
7F78
ENDCHAR
STARTCHAR v
ENCODING 118
SWIDTH 541 0
DWIDTH 15 0
BBX 15 14 0 0
BITMAP
F81E
783C
783C
3838
3C78
3C78
1C70
1E70
1EF0
0EF0
0EE0
0FE0
07E0
07C0
ENDCHAR
STARTCHAR w
ENCODING 119
SWIDTH 832 0
DWIDTH 23 0
BBX 22 14 1 0
BITMAP
F0783C
F0F838
F0F878
70F878
78FC70
79FC70
39DCF0
39DEE0
3DCEE0
3F8EE0
1F8FE0
1F8FC0
1F87C0
1F07C0
ENDCHAR
STARTCHAR x
ENCODING 120
SWIDTH 558 0
DWIDTH 16 0
BBX 14 14 1 0
BITMAP
F07C
7878
3CF0
3DE0
1FE0
0FC0
0F80
0FC0
1FC0
1DE0
3CF0
78F0
7078
F03C
ENDCHAR
STARTCHAR y
ENCODING 121
SWIDTH 593 0
DWIDTH 17 0
BBX 13 20 2 -6
BITMAP
F078
F078
F078
F078
F078
F078
F078
F078
F078
F078
F0F8
FFF8
7FF8
3E78
0078
0070
00F0
7FF0
7FE0
7F00
ENDCHAR
STARTCHAR z
ENCODING 122
SWIDTH 521 0
DWIDTH 15 0
BBX 12 14 1 0
BITMAP
7FF0
7FF0
7FF0
01E0
03C0
07C0
0F80
1F00
1E00
3C00
7C00
FFF0
FFF0
FFF0
ENDCHAR
STARTCHAR braceleft
ENCODING 123
SWIDTH 351 0
DWIDTH 10 0
BBX 8 25 1 -4
BITMAP
07
0E
1C
1C
3C
3C
3C
3C
3C
3C
38
78
E0
F0
38
38
3C
3C
3C
3C
3C
3C
1C
0E
07
ENDCHAR
STARTCHAR bar
ENCODING 124
SWIDTH 290 0
DWIDTH 8 0
BBX 4 26 2 -5
BITMAP
F0
F0
F0
F0
F0
F0
F0
F0
F0
F0
F0
F0
F0
F0
F0
F0
F0
F0
F0
F0
F0
F0
F0
F0
F0
F0
ENDCHAR
STARTCHAR braceright
ENCODING 125
SWIDTH 351 0
DWIDTH 10 0
BBX 8 25 1 -4
BITMAP
E0
70
78
38
38
3C
3C
3C
3C
3C
1C
1E
07
0F
1C
3C
3C
3C
3C
3C
3C
38
38
70
E0
ENDCHAR
STARTCHAR asciitilde
ENCODING 126
SWIDTH 497 0
DWIDTH 14 0
BBX 10 5 2 6
BITMAP
00C0
FCC0
FFC0
CFC0
C000
ENDCHAR
STARTCHAR uni00A0
ENCODING 160
SWIDTH 247 0
DWIDTH 7 0
BBX 1 1 0 0
BITMAP
00
ENDCHAR
STARTCHAR exclamdown
ENCODING 161
SWIDTH 290 0
DWIDTH 8 0
BBX 4 19 2 -5
BITMAP
F0
F0
F0
00
00
00
60
70
F0
F0
F0
F0
F0
F0
F0
F0
F0
F0
F0
ENDCHAR
STARTCHAR cent
ENCODING 162
SWIDTH 468 0
DWIDTH 13 0
BBX 10 19 2 0
BITMAP
0E00
0E00
3FC0
7FC0
FFC0
FE00
FE00
EE00
EE00
EE00
EE00
EE00
FE00
FE00
FFC0
7FC0
3FC0
0E00
0E00
ENDCHAR
STARTCHAR sterling
ENCODING 163
SWIDTH 599 0
DWIDTH 17 0
BBX 15 19 1 0
BITMAP
07FC
0FFC
1FFC
1E00
1E00
3C00
3C00
3C00
FFF0
FFF0
FFF0
3C00
3C00
3C00
3C00
3C00
FFFE
FFFE
FFFE
ENDCHAR
STARTCHAR currency
ENCODING 164
SWIDTH 679 0
DWIDTH 19 0
BBX 17 19 1 0
BITMAP
200200
F00780
7FFF00
3FFE00
3FFE00
3C1E00
3C1E00
3C1E00
3C1E00
3C1E00
3C1E00
3C1E00
3C1E00
3C1E00
3FFE00
3FFE00
7FFF00
F00780
200200
ENDCHAR
STARTCHAR yen
ENCODING 165
SWIDTH 628 0
DWIDTH 18 0
BBX 16 19 1 0
BITMAP
F00F
781E
781C
383C
3C38
1C78
FFFE
FFFE
0FE0
07E0
07C0
FFFE
FFFE
03C0
03C0
03C0
03C0
03C0
03C0
ENDCHAR
STARTCHAR brokenbar
ENCODING 166
SWIDTH 290 0
DWIDTH 8 0
BBX 4 26 2 -5
BITMAP
F0
F0
F0
F0
F0
F0
F0
F0
F0
F0
00
00
00
00
00
00
F0
F0
F0
F0
F0
F0
F0
F0
F0
F0
ENDCHAR
STARTCHAR section
ENCODING 167
SWIDTH 692 0
DWIDTH 19 0
BBX 17 24 1 -5
BITMAP
0FFC00
1FFC00
1FFC00
1E0000
1E0000
1E0000
1FC000
7FFC00
7FFF00
F0FF80
F00F80
F00780
F80780
7F0780
7FE780
1FFF00
03FE00
007C00
001E00
001E00
107C00
1FFC00
1FF800
1FE000
ENDCHAR
STARTCHAR dieresis
ENCODING 168
SWIDTH 320 0
DWIDTH 9 0
BBX 9 3 0 17
BITMAP
E380
E380
E380
ENDCHAR
STARTCHAR copyright
ENCODING 169
SWIDTH 742 0
DWIDTH 21 0
BBX 17 19 2 0
BITMAP
3FFE00
700700
400300
C00100
C3F100
C7F100
C60100
C60180
C60180
C60180
C60180
C60180
C70100
C7F100
C1F100
400100
600300
780E00
1FFC00
ENDCHAR
STARTCHAR ordfeminine
ENCODING 170
SWIDTH 414 0
DWIDTH 12 0
BBX 9 10 1 9
BITMAP
7F00
7F80
0380
0380
7F80
FF80
E380
E380
FF80
7D80
ENDCHAR
STARTCHAR guillemotleft
ENCODING 171
SWIDTH 493 0
DWIDTH 14 0
BBX 11 11 1 3
BITMAP
1CE0
38C0
39C0
7380
F380
E700
7380
7380
39C0
38C0
1CE0
ENDCHAR
STARTCHAR logicalnot
ENCODING 172
SWIDTH 539 0
DWIDTH 15 0
BBX 11 8 2 1
BITMAP
FFE0
FFE0
FFE0
00E0
00E0
00E0
00E0
00E0
ENDCHAR
STARTCHAR uni00AD
ENCODING 173
SWIDTH 369 0
DWIDTH 10 0
BBX 8 4 1 6
BITMAP
FF
FF
FF
FF
ENDCHAR
STARTCHAR registered
ENCODING 174
SWIDTH 742 0
DWIDTH 21 0
BBX 17 19 2 0
BITMAP
3FFE00
700700
400300
C00100
CFE100
CFF100
CE3100
CE3980
CE3180
CFF180
CFE180
CE6180
CE3100
CE3100
CE3900
400100
600300
780E00
1FFC00
ENDCHAR
STARTCHAR macron
ENCODING 175
SWIDTH 315 0
DWIDTH 9 0
BBX 9 2 0 17
BITMAP
FF80
FF80
ENDCHAR
STARTCHAR degree
ENCODING 176
SWIDTH 394 0
DWIDTH 11 0
BBX 7 8 2 11
BITMAP
FE
C6
C6
C6
C6
C6
FE
7C
ENDCHAR
STARTCHAR plusminus
ENCODING 177
SWIDTH 540 0
DWIDTH 15 0
BBX 11 16 2 0
BITMAP
0E00
0E00
0E00
0E00
FFE0
FFE0
FFE0
0E00
0E00
0E00
0E00
0000
0000
FFE0
FFE0
FFE0
ENDCHAR
STARTCHAR uni00B2
ENCODING 178
SWIDTH 353 0
DWIDTH 10 0
BBX 8 10 1 12
BITMAP
FE
87
07
07
1E
7C
E0
C0
FF
FF
ENDCHAR
STARTCHAR uni00B3
ENCODING 179
SWIDTH 350 0
DWIDTH 10 0
BBX 8 10 1 12
BITMAP
FE
8F
07
06
3E
3E
07
07
FF
FE
ENDCHAR
STARTCHAR acute
ENCODING 180
SWIDTH 228 0
DWIDTH 6 0
BBX 6 4 0 16
BITMAP
3C
78
70
E0
ENDCHAR
STARTCHAR uni00B5
ENCODING 181
SWIDTH 593 0
DWIDTH 17 0
BBX 13 19 2 -5
BITMAP
F078
F078
F078
F078
F078
F078
F078
F078
F078
F078
F0F8
FFF8
FFF8
FF78
F000
F000
F000
F000
F000
ENDCHAR
STARTCHAR paragraph
ENCODING 182
SWIDTH 620 0
DWIDTH 17 0
BBX 13 23 2 -4
BITMAP
7F98
FF98
FF98
FF98
FF98
FF98
FF98
FF98
FF98
FF98
FF98
FF98
3F98
0398
0398
0398
0398
0398
0398
0398
0398
0398
0398
ENDCHAR
STARTCHAR periodcentered
ENCODING 183
SWIDTH 273 0
DWIDTH 8 0
BBX 4 3 2 7
BITMAP
F0
F0
F0
ENDCHAR
STARTCHAR cedilla
ENCODING 184
SWIDTH 164 0
DWIDTH 5 0
BBX 5 6 0 -5
BITMAP
38
30
70
70
70
F0
ENDCHAR
STARTCHAR uni00B9
ENCODING 185
SWIDTH 229 0
DWIDTH 6 0
BBX 5 10 0 12
BITMAP
38
F8
D8
18
18
18
18
18
18
18
ENDCHAR
STARTCHAR ordmasculine
ENCODING 186
SWIDTH 430 0
DWIDTH 12 0
BBX 10 10 1 9
BITMAP
7F80
7F80
E1C0
E1C0
E1C0
E1C0
E1C0
E1C0
7F80
7F80
ENDCHAR
STARTCHAR guillemotright
ENCODING 187
SWIDTH 492 0
DWIDTH 14 0
BBX 11 11 2 3
BITMAP
E700
6300
7380
31C0
39C0
1CE0
39C0
31C0
7380
E300
E700
ENDCHAR
STARTCHAR onequarter
ENCODING 188
SWIDTH 687 0
DWIDTH 19 0
BBX 19 19 0 0
BITMAP
380700
F80E00
D80C00
181C00
181800
183000
187000
186000
18C700
19C600
018E00
030C00
071C80
063980
0E3180
1C3FE0
183FE0
380180
700180
ENDCHAR
STARTCHAR onehalf
ENCODING 189
SWIDTH 738 0
DWIDTH 21 0
BBX 20 19 0 0
BITMAP
380700
F80E00
D80C00
181C00
181800
183000
187000
186000
18CFC0
19CFE0
018070
030070
070060
0603E0
0E0F80
1C0E00
180C00
380FF0
700FF0
ENDCHAR
STARTCHAR threequarters
ENCODING 190
SWIDTH 807 0
DWIDTH 23 0
BBX 21 19 1 0
BITMAP
FE00E0
FF0180
070380
060300
3E0600
3E0E00
070C00
071800
8F38C0
FE31C0
007380
00E300
00C730
01C630
038E70
030FF8
070FF8
0E0070
1C0070
ENDCHAR
STARTCHAR questiondown
ENCODING 191
SWIDTH 451 0
DWIDTH 13 0
BBX 11 19 2 -5
BITMAP
0F80
0F80
0F80
0000
0000
0000
0700
0700
0700
3F00
7E00
F800
F000
F000
F000
F000
FFE0
FFE0
3FE0
ENDCHAR
ENDFONT
